<mxfile host="app.diagrams.net" agent="Mozilla/5.0 (Macintosh; Intel Mac OS X 10_15_7) AppleWebKit/537.36 (KHTML, like Gecko) Chrome/128.0.0.0 Safari/537.36" version="24.8.4">
  <diagram name="Page-1" id="xoQY6AT58NSAUzwIIvyx">
    <mxGraphModel dx="3645" dy="3425" grid="0" gridSize="10" guides="1" tooltips="1" connect="1" arrows="1" fold="1" page="0" pageScale="1" pageWidth="827" pageHeight="1169" math="0" shadow="0">
      <root>
        <mxCell id="0" />
        <mxCell id="1" parent="0" />
        <mxCell id="BsR4xqzMYpqGEiq5Pg8B-32" value="" style="edgeStyle=orthogonalEdgeStyle;rounded=0;orthogonalLoop=1;jettySize=auto;html=1;" edge="1" parent="1" source="BsR4xqzMYpqGEiq5Pg8B-30" target="BsR4xqzMYpqGEiq5Pg8B-31">
          <mxGeometry relative="1" as="geometry" />
        </mxCell>
        <mxCell id="BsR4xqzMYpqGEiq5Pg8B-30" value="Start Registration" style="strokeWidth=2;html=1;shape=mxgraph.flowchart.start_1;whiteSpace=wrap;" vertex="1" parent="1">
          <mxGeometry x="-339" y="-60" width="122" height="57" as="geometry" />
        </mxCell>
        <mxCell id="BsR4xqzMYpqGEiq5Pg8B-34" value="" style="edgeStyle=orthogonalEdgeStyle;rounded=0;orthogonalLoop=1;jettySize=auto;html=1;" edge="1" parent="1" source="BsR4xqzMYpqGEiq5Pg8B-31" target="BsR4xqzMYpqGEiq5Pg8B-33">
          <mxGeometry relative="1" as="geometry" />
        </mxCell>
        <mxCell id="BsR4xqzMYpqGEiq5Pg8B-31" value="POST?" style="rhombus;whiteSpace=wrap;html=1;strokeWidth=2;" vertex="1" parent="1">
          <mxGeometry x="-352" y="31" width="148" height="80" as="geometry" />
        </mxCell>
        <mxCell id="BsR4xqzMYpqGEiq5Pg8B-36" value="" style="edgeStyle=orthogonalEdgeStyle;rounded=0;orthogonalLoop=1;jettySize=auto;html=1;" edge="1" parent="1" source="BsR4xqzMYpqGEiq5Pg8B-33" target="BsR4xqzMYpqGEiq5Pg8B-37">
          <mxGeometry relative="1" as="geometry">
            <mxPoint x="-278" y="277" as="targetPoint" />
          </mxGeometry>
        </mxCell>
        <mxCell id="BsR4xqzMYpqGEiq5Pg8B-33" value="Get form" style="rounded=1;whiteSpace=wrap;html=1;strokeWidth=2;" vertex="1" parent="1">
          <mxGeometry x="-338" y="147" width="120" height="60" as="geometry" />
        </mxCell>
        <mxCell id="BsR4xqzMYpqGEiq5Pg8B-39" value="" style="edgeStyle=orthogonalEdgeStyle;rounded=0;orthogonalLoop=1;jettySize=auto;html=1;" edge="1" parent="1" source="BsR4xqzMYpqGEiq5Pg8B-37" target="BsR4xqzMYpqGEiq5Pg8B-40">
          <mxGeometry relative="1" as="geometry">
            <mxPoint x="-158" y="308" as="targetPoint" />
          </mxGeometry>
        </mxCell>
        <mxCell id="BsR4xqzMYpqGEiq5Pg8B-42" value="" style="edgeStyle=orthogonalEdgeStyle;rounded=0;orthogonalLoop=1;jettySize=auto;html=1;" edge="1" parent="1" source="BsR4xqzMYpqGEiq5Pg8B-37" target="BsR4xqzMYpqGEiq5Pg8B-41">
          <mxGeometry relative="1" as="geometry" />
        </mxCell>
        <mxCell id="BsR4xqzMYpqGEiq5Pg8B-37" value="Valid Form?" style="strokeWidth=2;html=1;shape=mxgraph.flowchart.decision;whiteSpace=wrap;" vertex="1" parent="1">
          <mxGeometry x="-328" y="258" width="100" height="100" as="geometry" />
        </mxCell>
        <mxCell id="BsR4xqzMYpqGEiq5Pg8B-40" value="Save User Profile" style="shape=parallelogram;perimeter=parallelogramPerimeter;whiteSpace=wrap;html=1;fixedSize=1;" vertex="1" parent="1">
          <mxGeometry x="-172" y="278" width="120" height="60" as="geometry" />
        </mxCell>
        <mxCell id="BsR4xqzMYpqGEiq5Pg8B-41" value="Show Error Message" style="shape=parallelogram;perimeter=parallelogramPerimeter;whiteSpace=wrap;html=1;fixedSize=1;" vertex="1" parent="1">
          <mxGeometry x="-512" y="278" width="155" height="60" as="geometry" />
        </mxCell>
        <mxCell id="BsR4xqzMYpqGEiq5Pg8B-43" value="" style="strokeWidth=2;html=1;shape=mxgraph.flowchart.annotation_2;align=left;labelPosition=right;pointerEvents=1;rotation=-90;" vertex="1" parent="1">
          <mxGeometry x="-300" y="214" width="51" height="298" as="geometry" />
        </mxCell>
        <mxCell id="BsR4xqzMYpqGEiq5Pg8B-47" value="" style="edgeStyle=orthogonalEdgeStyle;rounded=0;orthogonalLoop=1;jettySize=auto;html=1;" edge="1" parent="1" source="BsR4xqzMYpqGEiq5Pg8B-45" target="BsR4xqzMYpqGEiq5Pg8B-46">
          <mxGeometry relative="1" as="geometry" />
        </mxCell>
        <mxCell id="BsR4xqzMYpqGEiq5Pg8B-45" value="Redirect to Login Page" style="rounded=1;whiteSpace=wrap;html=1;absoluteArcSize=1;arcSize=14;strokeWidth=2;" vertex="1" parent="1">
          <mxGeometry x="-368.25" y="389" width="180.5" height="48" as="geometry" />
        </mxCell>
        <mxCell id="BsR4xqzMYpqGEiq5Pg8B-46" value="End" style="strokeWidth=2;html=1;shape=mxgraph.flowchart.terminator;whiteSpace=wrap;" vertex="1" parent="1">
          <mxGeometry x="-328" y="468" width="100" height="60" as="geometry" />
        </mxCell>
        <mxCell id="BsR4xqzMYpqGEiq5Pg8B-48" value="" style="edgeStyle=orthogonalEdgeStyle;rounded=0;orthogonalLoop=1;jettySize=auto;html=1;" edge="1" parent="1" source="BsR4xqzMYpqGEiq5Pg8B-49" target="BsR4xqzMYpqGEiq5Pg8B-50">
          <mxGeometry relative="1" as="geometry" />
        </mxCell>
        <mxCell id="BsR4xqzMYpqGEiq5Pg8B-49" value="Start Login" style="strokeWidth=2;html=1;shape=mxgraph.flowchart.start_1;whiteSpace=wrap;" vertex="1" parent="1">
          <mxGeometry x="118" y="-66" width="122" height="57" as="geometry" />
        </mxCell>
        <mxCell id="BsR4xqzMYpqGEiq5Pg8B-52" value="" style="edgeStyle=orthogonalEdgeStyle;rounded=0;orthogonalLoop=1;jettySize=auto;html=1;" edge="1" parent="1" source="BsR4xqzMYpqGEiq5Pg8B-50" target="BsR4xqzMYpqGEiq5Pg8B-53">
          <mxGeometry relative="1" as="geometry">
            <mxPoint x="180" y="139" as="targetPoint" />
          </mxGeometry>
        </mxCell>
        <mxCell id="BsR4xqzMYpqGEiq5Pg8B-50" value="POST?" style="rhombus;whiteSpace=wrap;html=1;strokeWidth=2;" vertex="1" parent="1">
          <mxGeometry x="105" y="25" width="148" height="80" as="geometry" />
        </mxCell>
        <mxCell id="BsR4xqzMYpqGEiq5Pg8B-55" value="" style="edgeStyle=orthogonalEdgeStyle;rounded=0;orthogonalLoop=1;jettySize=auto;html=1;" edge="1" parent="1" source="BsR4xqzMYpqGEiq5Pg8B-53" target="BsR4xqzMYpqGEiq5Pg8B-54">
          <mxGeometry relative="1" as="geometry" />
        </mxCell>
        <mxCell id="BsR4xqzMYpqGEiq5Pg8B-53" value="Retrieve Data" style="rounded=1;whiteSpace=wrap;html=1;absoluteArcSize=1;arcSize=14;strokeWidth=2;" vertex="1" parent="1">
          <mxGeometry x="129" y="149" width="100" height="56" as="geometry" />
        </mxCell>
        <mxCell id="BsR4xqzMYpqGEiq5Pg8B-60" value="" style="edgeStyle=orthogonalEdgeStyle;rounded=0;orthogonalLoop=1;jettySize=auto;html=1;" edge="1" parent="1" source="BsR4xqzMYpqGEiq5Pg8B-54" target="BsR4xqzMYpqGEiq5Pg8B-56">
          <mxGeometry relative="1" as="geometry" />
        </mxCell>
        <mxCell id="BsR4xqzMYpqGEiq5Pg8B-54" value="GET login form" style="shape=parallelogram;html=1;strokeWidth=2;perimeter=parallelogramPerimeter;whiteSpace=wrap;rounded=1;arcSize=12;size=0.23;" vertex="1" parent="1">
          <mxGeometry x="103" y="249" width="152" height="60" as="geometry" />
        </mxCell>
        <mxCell id="BsR4xqzMYpqGEiq5Pg8B-62" value="" style="edgeStyle=orthogonalEdgeStyle;rounded=0;orthogonalLoop=1;jettySize=auto;html=1;" edge="1" parent="1" source="BsR4xqzMYpqGEiq5Pg8B-56" target="BsR4xqzMYpqGEiq5Pg8B-63">
          <mxGeometry relative="1" as="geometry">
            <mxPoint x="14" y="381" as="targetPoint" />
          </mxGeometry>
        </mxCell>
        <mxCell id="BsR4xqzMYpqGEiq5Pg8B-64" value="No" style="edgeLabel;html=1;align=center;verticalAlign=middle;resizable=0;points=[];" vertex="1" connectable="0" parent="BsR4xqzMYpqGEiq5Pg8B-62">
          <mxGeometry x="-0.2738" y="-2" relative="1" as="geometry">
            <mxPoint as="offset" />
          </mxGeometry>
        </mxCell>
        <mxCell id="BsR4xqzMYpqGEiq5Pg8B-68" value="yes" style="edgeStyle=orthogonalEdgeStyle;rounded=0;orthogonalLoop=1;jettySize=auto;html=1;" edge="1" parent="1" source="BsR4xqzMYpqGEiq5Pg8B-56" target="BsR4xqzMYpqGEiq5Pg8B-67">
          <mxGeometry relative="1" as="geometry" />
        </mxCell>
        <mxCell id="BsR4xqzMYpqGEiq5Pg8B-56" value="ReCAPTCHA Valid?" style="rhombus;whiteSpace=wrap;html=1;rounded=1;arcSize=14;strokeWidth=2;" vertex="1" parent="1">
          <mxGeometry x="106.5" y="341" width="145" height="80" as="geometry" />
        </mxCell>
        <mxCell id="BsR4xqzMYpqGEiq5Pg8B-63" value="Show ERROR" style="shape=parallelogram;html=1;strokeWidth=2;perimeter=parallelogramPerimeter;whiteSpace=wrap;rounded=1;arcSize=12;size=0.23;" vertex="1" parent="1">
          <mxGeometry x="-63" y="351" width="127" height="60" as="geometry" />
        </mxCell>
        <mxCell id="BsR4xqzMYpqGEiq5Pg8B-70" value="" style="edgeStyle=orthogonalEdgeStyle;rounded=0;orthogonalLoop=1;jettySize=auto;html=1;" edge="1" parent="1" source="BsR4xqzMYpqGEiq5Pg8B-67" target="BsR4xqzMYpqGEiq5Pg8B-69">
          <mxGeometry relative="1" as="geometry" />
        </mxCell>
        <mxCell id="BsR4xqzMYpqGEiq5Pg8B-103" value="no" style="edgeLabel;html=1;align=center;verticalAlign=middle;resizable=0;points=[];" vertex="1" connectable="0" parent="BsR4xqzMYpqGEiq5Pg8B-70">
          <mxGeometry x="-0.2359" y="-3" relative="1" as="geometry">
            <mxPoint as="offset" />
          </mxGeometry>
        </mxCell>
        <mxCell id="BsR4xqzMYpqGEiq5Pg8B-72" value="" style="edgeStyle=orthogonalEdgeStyle;rounded=0;orthogonalLoop=1;jettySize=auto;html=1;" edge="1" parent="1" source="BsR4xqzMYpqGEiq5Pg8B-67" target="BsR4xqzMYpqGEiq5Pg8B-71">
          <mxGeometry relative="1" as="geometry" />
        </mxCell>
        <mxCell id="BsR4xqzMYpqGEiq5Pg8B-104" value="yes" style="edgeLabel;html=1;align=center;verticalAlign=middle;resizable=0;points=[];" vertex="1" connectable="0" parent="BsR4xqzMYpqGEiq5Pg8B-72">
          <mxGeometry x="0.1697" y="-1" relative="1" as="geometry">
            <mxPoint y="-1" as="offset" />
          </mxGeometry>
        </mxCell>
        <mxCell id="BsR4xqzMYpqGEiq5Pg8B-67" value="User Valid?" style="rhombus;whiteSpace=wrap;html=1;rounded=1;arcSize=14;strokeWidth=2;" vertex="1" parent="1">
          <mxGeometry x="110.5" y="453" width="141" height="80" as="geometry" />
        </mxCell>
        <mxCell id="BsR4xqzMYpqGEiq5Pg8B-69" value="Show ERROR" style="shape=parallelogram;perimeter=parallelogramPerimeter;whiteSpace=wrap;html=1;fixedSize=1;rounded=1;arcSize=14;strokeWidth=2;" vertex="1" parent="1">
          <mxGeometry x="338" y="463" width="120" height="60" as="geometry" />
        </mxCell>
        <mxCell id="BsR4xqzMYpqGEiq5Pg8B-74" value="" style="edgeStyle=orthogonalEdgeStyle;rounded=0;orthogonalLoop=1;jettySize=auto;html=1;" edge="1" parent="1" source="BsR4xqzMYpqGEiq5Pg8B-71" target="BsR4xqzMYpqGEiq5Pg8B-73">
          <mxGeometry relative="1" as="geometry" />
        </mxCell>
        <mxCell id="BsR4xqzMYpqGEiq5Pg8B-71" value="Log in User" style="whiteSpace=wrap;html=1;rounded=1;arcSize=14;strokeWidth=2;" vertex="1" parent="1">
          <mxGeometry x="121" y="558" width="120" height="60" as="geometry" />
        </mxCell>
        <mxCell id="BsR4xqzMYpqGEiq5Pg8B-73" value="End" style="strokeWidth=2;html=1;shape=mxgraph.flowchart.terminator;whiteSpace=wrap;" vertex="1" parent="1">
          <mxGeometry x="131" y="672" width="100" height="60" as="geometry" />
        </mxCell>
        <mxCell id="BsR4xqzMYpqGEiq5Pg8B-76" value="" style="edgeStyle=orthogonalEdgeStyle;rounded=0;orthogonalLoop=1;jettySize=auto;html=1;" edge="1" parent="1" source="BsR4xqzMYpqGEiq5Pg8B-77" target="BsR4xqzMYpqGEiq5Pg8B-79">
          <mxGeometry relative="1" as="geometry" />
        </mxCell>
        <mxCell id="BsR4xqzMYpqGEiq5Pg8B-77" value="Start Group Creation" style="strokeWidth=2;html=1;shape=mxgraph.flowchart.start_1;whiteSpace=wrap;" vertex="1" parent="1">
          <mxGeometry x="644" y="-58" width="122" height="57" as="geometry" />
        </mxCell>
        <mxCell id="BsR4xqzMYpqGEiq5Pg8B-95" value="" style="edgeStyle=orthogonalEdgeStyle;rounded=0;orthogonalLoop=1;jettySize=auto;html=1;" edge="1" parent="1" source="BsR4xqzMYpqGEiq5Pg8B-79">
          <mxGeometry relative="1" as="geometry">
            <mxPoint x="704.9999999999998" y="178" as="targetPoint" />
          </mxGeometry>
        </mxCell>
        <mxCell id="BsR4xqzMYpqGEiq5Pg8B-79" value="POST?" style="rhombus;whiteSpace=wrap;html=1;strokeWidth=2;" vertex="1" parent="1">
          <mxGeometry x="631" y="33" width="148" height="80" as="geometry" />
        </mxCell>
        <mxCell id="BsR4xqzMYpqGEiq5Pg8B-96" value="" style="edgeStyle=orthogonalEdgeStyle;rounded=0;orthogonalLoop=1;jettySize=auto;html=1;" edge="1" parent="1" target="BsR4xqzMYpqGEiq5Pg8B-90">
          <mxGeometry relative="1" as="geometry">
            <mxPoint x="705.047619047619" y="238" as="sourcePoint" />
          </mxGeometry>
        </mxCell>
        <mxCell id="BsR4xqzMYpqGEiq5Pg8B-88" value="" style="edgeStyle=orthogonalEdgeStyle;rounded=0;orthogonalLoop=1;jettySize=auto;html=1;" edge="1" parent="1" source="BsR4xqzMYpqGEiq5Pg8B-90" target="BsR4xqzMYpqGEiq5Pg8B-91">
          <mxGeometry relative="1" as="geometry" />
        </mxCell>
        <mxCell id="BsR4xqzMYpqGEiq5Pg8B-101" value="No" style="edgeLabel;html=1;align=center;verticalAlign=middle;resizable=0;points=[];" vertex="1" connectable="0" parent="BsR4xqzMYpqGEiq5Pg8B-88">
          <mxGeometry x="-0.1546" y="-2" relative="1" as="geometry">
            <mxPoint as="offset" />
          </mxGeometry>
        </mxCell>
        <mxCell id="BsR4xqzMYpqGEiq5Pg8B-89" value="" style="edgeStyle=orthogonalEdgeStyle;rounded=0;orthogonalLoop=1;jettySize=auto;html=1;" edge="1" parent="1" source="BsR4xqzMYpqGEiq5Pg8B-90" target="BsR4xqzMYpqGEiq5Pg8B-93">
          <mxGeometry relative="1" as="geometry" />
        </mxCell>
        <mxCell id="BsR4xqzMYpqGEiq5Pg8B-102" value="Yes" style="edgeLabel;html=1;align=center;verticalAlign=middle;resizable=0;points=[];" vertex="1" connectable="0" parent="BsR4xqzMYpqGEiq5Pg8B-89">
          <mxGeometry x="0.1979" y="2" relative="1" as="geometry">
            <mxPoint as="offset" />
          </mxGeometry>
        </mxCell>
        <mxCell id="BsR4xqzMYpqGEiq5Pg8B-90" value="Form Valid?" style="rhombus;whiteSpace=wrap;html=1;rounded=1;arcSize=14;strokeWidth=2;" vertex="1" parent="1">
          <mxGeometry x="635" y="278" width="141" height="80" as="geometry" />
        </mxCell>
        <mxCell id="BsR4xqzMYpqGEiq5Pg8B-91" value="Show ERROR" style="shape=parallelogram;perimeter=parallelogramPerimeter;whiteSpace=wrap;html=1;fixedSize=1;rounded=1;arcSize=14;strokeWidth=2;" vertex="1" parent="1">
          <mxGeometry x="862.5" y="328" width="120" height="60" as="geometry" />
        </mxCell>
        <mxCell id="BsR4xqzMYpqGEiq5Pg8B-92" value="" style="edgeStyle=orthogonalEdgeStyle;rounded=0;orthogonalLoop=1;jettySize=auto;html=1;" edge="1" parent="1" source="BsR4xqzMYpqGEiq5Pg8B-93">
          <mxGeometry relative="1" as="geometry">
            <mxPoint x="705.5" y="536.9999999999998" as="targetPoint" />
          </mxGeometry>
        </mxCell>
        <mxCell id="BsR4xqzMYpqGEiq5Pg8B-93" value="Create Group" style="whiteSpace=wrap;html=1;rounded=1;arcSize=14;strokeWidth=2;" vertex="1" parent="1">
          <mxGeometry x="645.5" y="423" width="120" height="60" as="geometry" />
        </mxCell>
        <mxCell id="BsR4xqzMYpqGEiq5Pg8B-99" style="edgeStyle=orthogonalEdgeStyle;rounded=0;orthogonalLoop=1;jettySize=auto;html=1;exitX=0.5;exitY=1;exitDx=0;exitDy=0;" edge="1" parent="1" source="BsR4xqzMYpqGEiq5Pg8B-98" target="BsR4xqzMYpqGEiq5Pg8B-100">
          <mxGeometry relative="1" as="geometry">
            <mxPoint x="704.6666666666665" y="634.4761904761904" as="targetPoint" />
          </mxGeometry>
        </mxCell>
        <mxCell id="BsR4xqzMYpqGEiq5Pg8B-98" value="Redirect to Group Detail Page" style="rounded=1;whiteSpace=wrap;html=1;absoluteArcSize=1;arcSize=14;strokeWidth=2;" vertex="1" parent="1">
          <mxGeometry x="614.75" y="538" width="180.5" height="48" as="geometry" />
        </mxCell>
        <mxCell id="BsR4xqzMYpqGEiq5Pg8B-100" value="End" style="strokeWidth=2;html=1;shape=mxgraph.flowchart.terminator;whiteSpace=wrap;" vertex="1" parent="1">
          <mxGeometry x="654.9966666666666" y="633.9961904761903" width="100" height="60" as="geometry" />
        </mxCell>
        <mxCell id="BsR4xqzMYpqGEiq5Pg8B-105" value="GET group creation form" style="rounded=1;whiteSpace=wrap;html=1;absoluteArcSize=1;arcSize=14;strokeWidth=2;" vertex="1" parent="1">
          <mxGeometry x="592" y="179" width="250" height="65" as="geometry" />
        </mxCell>
        <mxCell id="BsR4xqzMYpqGEiq5Pg8B-106" value="" style="edgeStyle=orthogonalEdgeStyle;rounded=0;orthogonalLoop=1;jettySize=auto;html=1;" edge="1" parent="1" source="BsR4xqzMYpqGEiq5Pg8B-107" target="BsR4xqzMYpqGEiq5Pg8B-109">
          <mxGeometry relative="1" as="geometry" />
        </mxCell>
        <mxCell id="BsR4xqzMYpqGEiq5Pg8B-107" value="Start Add users" style="strokeWidth=2;html=1;shape=mxgraph.flowchart.start_1;whiteSpace=wrap;" vertex="1" parent="1">
          <mxGeometry x="1211" y="-66" width="122" height="57" as="geometry" />
        </mxCell>
        <mxCell id="BsR4xqzMYpqGEiq5Pg8B-108" value="" style="edgeStyle=orthogonalEdgeStyle;rounded=0;orthogonalLoop=1;jettySize=auto;html=1;" edge="1" parent="1" source="BsR4xqzMYpqGEiq5Pg8B-109">
          <mxGeometry relative="1" as="geometry">
            <mxPoint x="1271.9999999999998" y="170" as="targetPoint" />
          </mxGeometry>
        </mxCell>
        <mxCell id="BsR4xqzMYpqGEiq5Pg8B-109" value="POST?" style="rhombus;whiteSpace=wrap;html=1;strokeWidth=2;" vertex="1" parent="1">
          <mxGeometry x="1198" y="25" width="148" height="80" as="geometry" />
        </mxCell>
        <mxCell id="BsR4xqzMYpqGEiq5Pg8B-112" value="" style="edgeStyle=orthogonalEdgeStyle;rounded=0;orthogonalLoop=1;jettySize=auto;html=1;" edge="1" parent="1" source="BsR4xqzMYpqGEiq5Pg8B-110" target="BsR4xqzMYpqGEiq5Pg8B-111">
          <mxGeometry relative="1" as="geometry" />
        </mxCell>
        <mxCell id="BsR4xqzMYpqGEiq5Pg8B-110" value="Retrieve Users" style="rounded=1;whiteSpace=wrap;html=1;absoluteArcSize=1;arcSize=14;strokeWidth=2;" vertex="1" parent="1">
          <mxGeometry x="1159" y="171" width="250" height="65" as="geometry" />
        </mxCell>
        <mxCell id="BsR4xqzMYpqGEiq5Pg8B-114" value="" style="edgeStyle=orthogonalEdgeStyle;rounded=0;orthogonalLoop=1;jettySize=auto;html=1;" edge="1" parent="1" source="BsR4xqzMYpqGEiq5Pg8B-111" target="BsR4xqzMYpqGEiq5Pg8B-115">
          <mxGeometry relative="1" as="geometry">
            <mxPoint x="1480" y="348" as="targetPoint" />
          </mxGeometry>
        </mxCell>
        <mxCell id="BsR4xqzMYpqGEiq5Pg8B-117" value="" style="edgeStyle=orthogonalEdgeStyle;rounded=0;orthogonalLoop=1;jettySize=auto;html=1;" edge="1" parent="1" source="BsR4xqzMYpqGEiq5Pg8B-111" target="BsR4xqzMYpqGEiq5Pg8B-116">
          <mxGeometry relative="1" as="geometry" />
        </mxCell>
        <mxCell id="BsR4xqzMYpqGEiq5Pg8B-111" value="Is user invited already?" style="rhombus;whiteSpace=wrap;html=1;rounded=1;arcSize=14;strokeWidth=2;" vertex="1" parent="1">
          <mxGeometry x="1196" y="308" width="176" height="80" as="geometry" />
        </mxCell>
        <mxCell id="BsR4xqzMYpqGEiq5Pg8B-115" value="Show message (already invited)" style="shape=parallelogram;html=1;strokeWidth=2;perimeter=parallelogramPerimeter;whiteSpace=wrap;rounded=1;arcSize=12;size=0.23;" vertex="1" parent="1">
          <mxGeometry x="1430" y="318" width="312" height="60" as="geometry" />
        </mxCell>
        <mxCell id="BsR4xqzMYpqGEiq5Pg8B-119" value="" style="edgeStyle=orthogonalEdgeStyle;rounded=0;orthogonalLoop=1;jettySize=auto;html=1;" edge="1" parent="1" source="BsR4xqzMYpqGEiq5Pg8B-116" target="BsR4xqzMYpqGEiq5Pg8B-118">
          <mxGeometry relative="1" as="geometry" />
        </mxCell>
        <mxCell id="BsR4xqzMYpqGEiq5Pg8B-116" value="Add user" style="whiteSpace=wrap;html=1;rounded=1;arcSize=14;strokeWidth=2;" vertex="1" parent="1">
          <mxGeometry x="1224" y="443" width="120" height="60" as="geometry" />
        </mxCell>
        <mxCell id="BsR4xqzMYpqGEiq5Pg8B-120" style="edgeStyle=orthogonalEdgeStyle;rounded=0;orthogonalLoop=1;jettySize=auto;html=1;exitX=0.5;exitY=1;exitDx=0;exitDy=0;" edge="1" parent="1" source="BsR4xqzMYpqGEiq5Pg8B-118" target="BsR4xqzMYpqGEiq5Pg8B-121">
          <mxGeometry relative="1" as="geometry">
            <mxPoint x="1284" y="717" as="targetPoint" />
          </mxGeometry>
        </mxCell>
        <mxCell id="BsR4xqzMYpqGEiq5Pg8B-118" value="Redirect to group details" style="whiteSpace=wrap;html=1;rounded=1;arcSize=14;strokeWidth=2;" vertex="1" parent="1">
          <mxGeometry x="1224" y="580" width="120" height="60" as="geometry" />
        </mxCell>
        <mxCell id="BsR4xqzMYpqGEiq5Pg8B-121" value="End" style="strokeWidth=2;html=1;shape=mxgraph.flowchart.terminator;whiteSpace=wrap;" vertex="1" parent="1">
          <mxGeometry x="1234" y="687" width="100" height="60" as="geometry" />
        </mxCell>
        <mxCell id="BsR4xqzMYpqGEiq5Pg8B-124" value="" style="edgeStyle=orthogonalEdgeStyle;rounded=0;orthogonalLoop=1;jettySize=auto;html=1;" edge="1" parent="1" source="BsR4xqzMYpqGEiq5Pg8B-122" target="BsR4xqzMYpqGEiq5Pg8B-123">
          <mxGeometry relative="1" as="geometry" />
        </mxCell>
        <mxCell id="BsR4xqzMYpqGEiq5Pg8B-122" value="Start Accepting invite" style="strokeWidth=2;html=1;shape=mxgraph.flowchart.start_1;whiteSpace=wrap;" vertex="1" parent="1">
          <mxGeometry x="-354.25" y="794" width="152.5" height="67" as="geometry" />
        </mxCell>
        <mxCell id="BsR4xqzMYpqGEiq5Pg8B-126" value="" style="edgeStyle=orthogonalEdgeStyle;rounded=0;orthogonalLoop=1;jettySize=auto;html=1;" edge="1" parent="1" source="BsR4xqzMYpqGEiq5Pg8B-123" target="BsR4xqzMYpqGEiq5Pg8B-125">
          <mxGeometry relative="1" as="geometry" />
        </mxCell>
        <mxCell id="BsR4xqzMYpqGEiq5Pg8B-123" value="Get invitation details" style="rounded=1;whiteSpace=wrap;html=1;absoluteArcSize=1;arcSize=14;strokeWidth=2;" vertex="1" parent="1">
          <mxGeometry x="-372.56" y="903" width="189.12" height="63" as="geometry" />
        </mxCell>
        <mxCell id="BsR4xqzMYpqGEiq5Pg8B-128" value="" style="edgeStyle=orthogonalEdgeStyle;rounded=0;orthogonalLoop=1;jettySize=auto;html=1;" edge="1" parent="1" source="BsR4xqzMYpqGEiq5Pg8B-125" target="BsR4xqzMYpqGEiq5Pg8B-129">
          <mxGeometry relative="1" as="geometry">
            <mxPoint x="-91" y="1063" as="targetPoint" />
          </mxGeometry>
        </mxCell>
        <mxCell id="BsR4xqzMYpqGEiq5Pg8B-131" value="" style="edgeStyle=orthogonalEdgeStyle;rounded=0;orthogonalLoop=1;jettySize=auto;html=1;" edge="1" parent="1" source="BsR4xqzMYpqGEiq5Pg8B-125" target="BsR4xqzMYpqGEiq5Pg8B-130">
          <mxGeometry relative="1" as="geometry" />
        </mxCell>
        <mxCell id="BsR4xqzMYpqGEiq5Pg8B-125" value="Accept?" style="rhombus;whiteSpace=wrap;html=1;rounded=1;arcSize=14;strokeWidth=2;" vertex="1" parent="1">
          <mxGeometry x="-361.5" y="1023" width="167" height="80" as="geometry" />
        </mxCell>
        <mxCell id="BsR4xqzMYpqGEiq5Pg8B-129" value="Invite deleted" style="shape=parallelogram;html=1;strokeWidth=2;perimeter=parallelogramPerimeter;whiteSpace=wrap;rounded=1;arcSize=12;size=0.23;" vertex="1" parent="1">
          <mxGeometry x="-141" y="1033" width="125" height="60" as="geometry" />
        </mxCell>
        <mxCell id="BsR4xqzMYpqGEiq5Pg8B-133" value="" style="edgeStyle=orthogonalEdgeStyle;rounded=0;orthogonalLoop=1;jettySize=auto;html=1;" edge="1" parent="1" source="BsR4xqzMYpqGEiq5Pg8B-130" target="BsR4xqzMYpqGEiq5Pg8B-132">
          <mxGeometry relative="1" as="geometry" />
        </mxCell>
        <mxCell id="BsR4xqzMYpqGEiq5Pg8B-130" value="Redirect to group details page" style="whiteSpace=wrap;html=1;rounded=1;arcSize=14;strokeWidth=2;" vertex="1" parent="1">
          <mxGeometry x="-338" y="1150" width="120" height="60" as="geometry" />
        </mxCell>
        <mxCell id="BsR4xqzMYpqGEiq5Pg8B-132" value="End" style="strokeWidth=2;html=1;shape=mxgraph.flowchart.terminator;whiteSpace=wrap;" vertex="1" parent="1">
          <mxGeometry x="-328" y="1244" width="100" height="60" as="geometry" />
        </mxCell>
        <mxCell id="BsR4xqzMYpqGEiq5Pg8B-134" value="Start request" style="strokeWidth=2;html=1;shape=mxgraph.flowchart.start_1;whiteSpace=wrap;" vertex="1" parent="1">
          <mxGeometry x="107.5" y="863" width="152.5" height="67" as="geometry" />
        </mxCell>
        <mxCell id="BsR4xqzMYpqGEiq5Pg8B-135" value="" style="edgeStyle=orthogonalEdgeStyle;rounded=0;orthogonalLoop=1;jettySize=auto;html=1;" edge="1" parent="1" target="BsR4xqzMYpqGEiq5Pg8B-136">
          <mxGeometry relative="1" as="geometry">
            <mxPoint x="181.6" y="930" as="sourcePoint" />
            <mxPoint x="181.6" y="972" as="targetPoint" />
          </mxGeometry>
        </mxCell>
        <mxCell id="BsR4xqzMYpqGEiq5Pg8B-138" value="" style="edgeStyle=orthogonalEdgeStyle;rounded=0;orthogonalLoop=1;jettySize=auto;html=1;" edge="1" parent="1" source="BsR4xqzMYpqGEiq5Pg8B-136" target="BsR4xqzMYpqGEiq5Pg8B-137">
          <mxGeometry relative="1" as="geometry" />
        </mxCell>
        <mxCell id="BsR4xqzMYpqGEiq5Pg8B-140" value="" style="edgeStyle=orthogonalEdgeStyle;rounded=0;orthogonalLoop=1;jettySize=auto;html=1;" edge="1" parent="1" source="BsR4xqzMYpqGEiq5Pg8B-136" target="BsR4xqzMYpqGEiq5Pg8B-139">
          <mxGeometry relative="1" as="geometry" />
        </mxCell>
        <mxCell id="BsR4xqzMYpqGEiq5Pg8B-136" value="Is user a member already?" style="strokeWidth=2;html=1;shape=mxgraph.flowchart.decision;whiteSpace=wrap;" vertex="1" parent="1">
          <mxGeometry x="103" y="973" width="157" height="100" as="geometry" />
        </mxCell>
        <mxCell id="BsR4xqzMYpqGEiq5Pg8B-137" value="Show message" style="shape=parallelogram;perimeter=parallelogramPerimeter;whiteSpace=wrap;html=1;fixedSize=1;strokeWidth=2;" vertex="1" parent="1">
          <mxGeometry x="358.5" y="993" width="120" height="60" as="geometry" />
        </mxCell>
        <mxCell id="BsR4xqzMYpqGEiq5Pg8B-142" value="" style="edgeStyle=orthogonalEdgeStyle;rounded=0;orthogonalLoop=1;jettySize=auto;html=1;" edge="1" parent="1" source="BsR4xqzMYpqGEiq5Pg8B-139" target="BsR4xqzMYpqGEiq5Pg8B-141">
          <mxGeometry relative="1" as="geometry" />
        </mxCell>
        <mxCell id="BsR4xqzMYpqGEiq5Pg8B-139" value="Send request" style="rounded=1;whiteSpace=wrap;html=1;strokeWidth=2;" vertex="1" parent="1">
          <mxGeometry x="121.5" y="1120" width="120" height="60" as="geometry" />
        </mxCell>
        <mxCell id="BsR4xqzMYpqGEiq5Pg8B-141" value="end" style="strokeWidth=2;html=1;shape=mxgraph.flowchart.terminator;whiteSpace=wrap;" vertex="1" parent="1">
          <mxGeometry x="131.75" y="1212" width="100" height="60" as="geometry" />
        </mxCell>
        <mxCell id="BsR4xqzMYpqGEiq5Pg8B-145" value="" style="edgeStyle=orthogonalEdgeStyle;rounded=0;orthogonalLoop=1;jettySize=auto;html=1;" edge="1" parent="1" source="BsR4xqzMYpqGEiq5Pg8B-143" target="BsR4xqzMYpqGEiq5Pg8B-144">
          <mxGeometry relative="1" as="geometry" />
        </mxCell>
        <mxCell id="BsR4xqzMYpqGEiq5Pg8B-143" value="Start Vote" style="strokeWidth=2;html=1;shape=mxgraph.flowchart.start_1;whiteSpace=wrap;" vertex="1" parent="1">
          <mxGeometry x="675" y="782" width="141" height="79" as="geometry" />
        </mxCell>
        <mxCell id="BsR4xqzMYpqGEiq5Pg8B-147" value="" style="edgeStyle=orthogonalEdgeStyle;rounded=0;orthogonalLoop=1;jettySize=auto;html=1;" edge="1" parent="1" source="BsR4xqzMYpqGEiq5Pg8B-144" target="BsR4xqzMYpqGEiq5Pg8B-146">
          <mxGeometry relative="1" as="geometry" />
        </mxCell>
        <mxCell id="BsR4xqzMYpqGEiq5Pg8B-149" value="" style="edgeStyle=orthogonalEdgeStyle;rounded=0;orthogonalLoop=1;jettySize=auto;html=1;" edge="1" parent="1" source="BsR4xqzMYpqGEiq5Pg8B-144" target="BsR4xqzMYpqGEiq5Pg8B-148">
          <mxGeometry relative="1" as="geometry" />
        </mxCell>
        <mxCell id="BsR4xqzMYpqGEiq5Pg8B-144" value="Has user voted?" style="rhombus;whiteSpace=wrap;html=1;strokeWidth=2;" vertex="1" parent="1">
          <mxGeometry x="664.75" y="900" width="161.5" height="80" as="geometry" />
        </mxCell>
        <mxCell id="BsR4xqzMYpqGEiq5Pg8B-146" value="Show Error message" style="shape=parallelogram;perimeter=parallelogramPerimeter;whiteSpace=wrap;html=1;fixedSize=1;strokeWidth=2;" vertex="1" parent="1">
          <mxGeometry x="927" y="910" width="184" height="60" as="geometry" />
        </mxCell>
        <mxCell id="BsR4xqzMYpqGEiq5Pg8B-151" value="" style="edgeStyle=orthogonalEdgeStyle;rounded=0;orthogonalLoop=1;jettySize=auto;html=1;" edge="1" parent="1" source="BsR4xqzMYpqGEiq5Pg8B-148" target="BsR4xqzMYpqGEiq5Pg8B-150">
          <mxGeometry relative="1" as="geometry" />
        </mxCell>
        <mxCell id="BsR4xqzMYpqGEiq5Pg8B-153" value="" style="edgeStyle=orthogonalEdgeStyle;rounded=0;orthogonalLoop=1;jettySize=auto;html=1;" edge="1" parent="1" source="BsR4xqzMYpqGEiq5Pg8B-148" target="BsR4xqzMYpqGEiq5Pg8B-152">
          <mxGeometry relative="1" as="geometry" />
        </mxCell>
        <mxCell id="BsR4xqzMYpqGEiq5Pg8B-148" value="Accept?" style="rounded=1;whiteSpace=wrap;html=1;strokeWidth=2;" vertex="1" parent="1">
          <mxGeometry x="685.5" y="1030" width="120" height="60" as="geometry" />
        </mxCell>
        <mxCell id="BsR4xqzMYpqGEiq5Pg8B-150" value="Add accept user vote to list" style="rounded=1;whiteSpace=wrap;html=1;strokeWidth=2;" vertex="1" parent="1">
          <mxGeometry x="685.5" y="1170" width="120" height="60" as="geometry" />
        </mxCell>
        <mxCell id="BsR4xqzMYpqGEiq5Pg8B-152" value="Add deny user vote to list" style="whiteSpace=wrap;html=1;rounded=1;strokeWidth=2;" vertex="1" parent="1">
          <mxGeometry x="879" y="1170" width="120" height="60" as="geometry" />
        </mxCell>
        <mxCell id="BsR4xqzMYpqGEiq5Pg8B-154" value="" style="strokeWidth=2;html=1;shape=mxgraph.flowchart.annotation_2;align=left;labelPosition=right;pointerEvents=1;rotation=-90;" vertex="1" parent="1">
          <mxGeometry x="815.5" y="1158.5" width="50" height="191" as="geometry" />
        </mxCell>
        <mxCell id="BsR4xqzMYpqGEiq5Pg8B-157" value="" style="edgeStyle=orthogonalEdgeStyle;rounded=0;orthogonalLoop=1;jettySize=auto;html=1;" edge="1" parent="1" source="BsR4xqzMYpqGEiq5Pg8B-155">
          <mxGeometry relative="1" as="geometry">
            <mxPoint x="840.4782608695655" y="1414" as="targetPoint" />
          </mxGeometry>
        </mxCell>
        <mxCell id="BsR4xqzMYpqGEiq5Pg8B-160" value="" style="edgeStyle=orthogonalEdgeStyle;rounded=0;orthogonalLoop=1;jettySize=auto;html=1;" edge="1" parent="1" source="BsR4xqzMYpqGEiq5Pg8B-155" target="BsR4xqzMYpqGEiq5Pg8B-161">
          <mxGeometry relative="1" as="geometry">
            <mxPoint x="1022" y="1319" as="targetPoint" />
          </mxGeometry>
        </mxCell>
        <mxCell id="BsR4xqzMYpqGEiq5Pg8B-155" value="Is total accept votes &amp;gt; 60%" style="strokeWidth=2;html=1;shape=mxgraph.flowchart.decision;whiteSpace=wrap;" vertex="1" parent="1">
          <mxGeometry x="743.25" y="1269" width="194.5" height="100" as="geometry" />
        </mxCell>
        <mxCell id="BsR4xqzMYpqGEiq5Pg8B-161" value="Deny request" style="rounded=1;whiteSpace=wrap;html=1;absoluteArcSize=1;arcSize=14;strokeWidth=2;" vertex="1" parent="1">
          <mxGeometry x="966" y="1415" width="100" height="57" as="geometry" />
        </mxCell>
        <mxCell id="BsR4xqzMYpqGEiq5Pg8B-162" value="Accept request" style="rounded=1;whiteSpace=wrap;html=1;absoluteArcSize=1;arcSize=14;strokeWidth=2;" vertex="1" parent="1">
          <mxGeometry x="795.25" y="1415" width="100" height="57" as="geometry" />
        </mxCell>
        <mxCell id="BsR4xqzMYpqGEiq5Pg8B-163" value="" style="strokeWidth=2;html=1;shape=mxgraph.flowchart.annotation_2;align=left;labelPosition=right;pointerEvents=1;rotation=-90;" vertex="1" parent="1">
          <mxGeometry x="909" y="1403" width="50" height="191" as="geometry" />
        </mxCell>
        <mxCell id="BsR4xqzMYpqGEiq5Pg8B-166" value="" style="edgeStyle=orthogonalEdgeStyle;rounded=0;orthogonalLoop=1;jettySize=auto;html=1;" edge="1" parent="1" source="BsR4xqzMYpqGEiq5Pg8B-164" target="BsR4xqzMYpqGEiq5Pg8B-165">
          <mxGeometry relative="1" as="geometry" />
        </mxCell>
        <mxCell id="BsR4xqzMYpqGEiq5Pg8B-164" value="Redirect to group page" style="rounded=1;whiteSpace=wrap;html=1;absoluteArcSize=1;arcSize=14;strokeWidth=2;" vertex="1" parent="1">
          <mxGeometry x="884" y="1522" width="100" height="57" as="geometry" />
        </mxCell>
        <mxCell id="BsR4xqzMYpqGEiq5Pg8B-165" value="End" style="strokeWidth=2;html=1;shape=mxgraph.flowchart.terminator;whiteSpace=wrap;" vertex="1" parent="1">
          <mxGeometry x="884" y="1614" width="100" height="60" as="geometry" />
        </mxCell>
        <mxCell id="BsR4xqzMYpqGEiq5Pg8B-169" value="" style="edgeStyle=orthogonalEdgeStyle;rounded=0;orthogonalLoop=1;jettySize=auto;html=1;" edge="1" parent="1" source="BsR4xqzMYpqGEiq5Pg8B-167" target="BsR4xqzMYpqGEiq5Pg8B-168">
          <mxGeometry relative="1" as="geometry" />
        </mxCell>
        <mxCell id="BsR4xqzMYpqGEiq5Pg8B-167" value="Start Delete group" style="strokeWidth=2;html=1;shape=mxgraph.flowchart.start_1;whiteSpace=wrap;" vertex="1" parent="1">
          <mxGeometry x="1278" y="946" width="204" height="80.5" as="geometry" />
        </mxCell>
        <mxCell id="BsR4xqzMYpqGEiq5Pg8B-171" value="" style="edgeStyle=orthogonalEdgeStyle;rounded=0;orthogonalLoop=1;jettySize=auto;html=1;" edge="1" parent="1" source="BsR4xqzMYpqGEiq5Pg8B-168" target="BsR4xqzMYpqGEiq5Pg8B-174">
          <mxGeometry relative="1" as="geometry">
            <mxPoint x="1380" y="1231.5" as="targetPoint" />
          </mxGeometry>
        </mxCell>
        <mxCell id="BsR4xqzMYpqGEiq5Pg8B-173" value="" style="edgeStyle=orthogonalEdgeStyle;rounded=0;orthogonalLoop=1;jettySize=auto;html=1;" edge="1" parent="1" source="BsR4xqzMYpqGEiq5Pg8B-168" target="BsR4xqzMYpqGEiq5Pg8B-172">
          <mxGeometry relative="1" as="geometry" />
        </mxCell>
        <mxCell id="BsR4xqzMYpqGEiq5Pg8B-168" value="Is user an admin?" style="rhombus;whiteSpace=wrap;html=1;strokeWidth=2;" vertex="1" parent="1">
          <mxGeometry x="1283.5" y="1061.5" width="193" height="80" as="geometry" />
        </mxCell>
        <mxCell id="BsR4xqzMYpqGEiq5Pg8B-172" value="Show Error" style="shape=parallelogram;perimeter=parallelogramPerimeter;whiteSpace=wrap;html=1;fixedSize=1;strokeWidth=2;" vertex="1" parent="1">
          <mxGeometry x="1510" y="1208.5" width="120" height="60" as="geometry" />
        </mxCell>
        <mxCell id="BsR4xqzMYpqGEiq5Pg8B-176" value="" style="edgeStyle=orthogonalEdgeStyle;rounded=0;orthogonalLoop=1;jettySize=auto;html=1;" edge="1" parent="1" source="BsR4xqzMYpqGEiq5Pg8B-174" target="BsR4xqzMYpqGEiq5Pg8B-175">
          <mxGeometry relative="1" as="geometry" />
        </mxCell>
        <mxCell id="BsR4xqzMYpqGEiq5Pg8B-174" value="Delete group" style="rounded=1;whiteSpace=wrap;html=1;absoluteArcSize=1;arcSize=14;strokeWidth=2;" vertex="1" parent="1">
          <mxGeometry x="1296" y="1198.5" width="168" height="62" as="geometry" />
        </mxCell>
        <mxCell id="BsR4xqzMYpqGEiq5Pg8B-178" value="" style="edgeStyle=orthogonalEdgeStyle;rounded=0;orthogonalLoop=1;jettySize=auto;html=1;" edge="1" parent="1" source="BsR4xqzMYpqGEiq5Pg8B-175" target="BsR4xqzMYpqGEiq5Pg8B-177">
          <mxGeometry relative="1" as="geometry" />
        </mxCell>
        <mxCell id="BsR4xqzMYpqGEiq5Pg8B-175" value="Show messsage" style="shape=parallelogram;perimeter=parallelogramPerimeter;whiteSpace=wrap;html=1;fixedSize=1;rounded=1;arcSize=14;strokeWidth=2;" vertex="1" parent="1">
          <mxGeometry x="1320" y="1341.5" width="120" height="60" as="geometry" />
        </mxCell>
        <mxCell id="BsR4xqzMYpqGEiq5Pg8B-177" value="end" style="strokeWidth=2;html=1;shape=mxgraph.flowchart.terminator;whiteSpace=wrap;" vertex="1" parent="1">
          <mxGeometry x="1330" y="1452.5" width="100" height="60" as="geometry" />
        </mxCell>
      </root>
    </mxGraphModel>
  </diagram>
</mxfile>
